Coordinates
version=1
nRows=13
nColumns=22
inDegrees=yes

Units are S.I. units (second, meters, Newtons, ...)
If the header above contains a line with 'inDegrees', this indicates whether rotational values are in degrees (yes) or radians (no).

endheader
time	pelvis_tilt	pelvis_list	pelvis_rotation	pelvis_tx	pelvis_ty	pelvis_tz	hip_flexion_r	hip_adduction_r	hip_rotation_r	knee_angle_r	ankle_angle_r	subtalar_angle_r	hip_flexion_l	hip_adduction_l	hip_rotation_l	knee_angle_l	ankle_angle_l	subtalar_angle_l	lumbar_extension	lumbar_bending	lumbar_rotation
      2.90000000	     -2.70750812	      6.00544238	    -34.45828433	     -0.05286542	      0.85774476	     -0.70527789	     20.26621400	     -2.86882985	     12.84936227	    -73.12649197	      7.03271069	    -11.37772761	     23.47843977	     -6.25071557	     -1.05393953	    -28.68342956	     10.98707909	     12.60548623	     -3.53639878	     -1.90789645	      9.07151328
      2.91000000	     -2.78981001	      5.90995874	    -35.41669045	     -0.04735348	      0.85961888	     -0.70364044	     21.92913082	     -2.62657523	     11.42292697	    -74.82444889	      7.56081329	    -11.84704830	     22.70042056	     -6.45158457	     -1.77283415	    -28.34687102	     11.22749441	     12.27441142	     -3.68232440	     -1.75467580	      8.54756969
      2.92000000	     -2.90436706	      5.63374388	    -36.28215389	     -0.04196451	      0.86166612	     -0.70175873	     23.30680328	     -2.13044078	      9.92049229	    -76.07747319	      8.02816874	    -12.01048111	     21.85815826	     -6.80919570	     -2.39333403	    -28.01038460	     11.48615061	     11.98592228	     -3.90784977	     -1.43290538	      7.95410752
      2.93000000	     -3.03478285	      5.27775301	    -37.08735137	     -0.03671824	      0.86376123	     -0.69964589	     24.48261434	     -1.47490138	      8.40066640	    -76.93591348	      8.37279643	    -11.83717279	     20.97605079	     -7.24135931	     -2.99511144	    -27.65501188	     11.73285696	     11.79189494	     -4.16570618	     -1.05131943	      7.32355256
      2.94000000	     -3.21239572	      4.84167665	    -37.81740113	     -0.03161453	      0.86585583	     -0.69733223	     25.49513024	     -0.64295579	      6.87197112	    -77.41505855	      8.48289586	    -11.03100403	     20.07672770	     -7.75874058	     -3.52691677	    -27.26762376	     11.93529707	     11.56435577	     -4.42695807	     -0.58685297	      6.60496999
      2.95000000	     -3.37863899	      4.37053536	    -38.52603005	     -0.02659988	      0.86790806	     -0.69481675	     26.34462744	      0.24680771	      5.34749448	    -77.55082943	      8.49914718	     -9.90701990	     19.12243446	     -8.30525559	     -4.10333825	    -26.85926434	     12.17842590	     11.46187069	     -4.71117608	     -0.11538380	      5.90921532
      2.96000000	     -3.54126021	      3.89978821	    -39.21345342	     -0.02167203	      0.86986483	     -0.69215571	     27.08594330	      1.14107616	      3.83334080	    -77.38390183	      8.41295093	     -8.54674626	     18.13598288	     -8.84539214	     -4.69799911	    -26.41234064	     12.41436921	     11.39224629	     -4.98763241	      0.34183551	      5.21028093
      2.97000000	     -3.69240728	      3.46230372	    -39.89756500	     -0.01681303	      0.87168385	     -0.68939055	     27.75498220	      1.97056678	      2.33429060	    -76.95611440	      8.29801645	     -7.04739626	     17.12826510	     -9.34443228	     -5.32950675	    -25.92716904	     12.64372273	     11.34223193	     -5.24104361	      0.75746235	      4.53264089
      2.98000000	     -3.83178760	      3.08173733	    -40.59486153	     -0.01202516	      0.87332492	     -0.68655773	     28.38418859	      2.69032956	      0.86084874	    -76.30629334	      8.20841608	     -5.51425622	     16.11457836	     -9.78210988	     -6.01523935	    -25.40656497	     12.87194066	     11.30052251	     -5.45779037	      1.11674447	      3.89177405
      2.99000000	     -3.95995225	      2.75695130	    -41.31477776	     -0.00727890	      0.87478891	     -0.68367404	     28.97227798	      3.28176999	     -0.58615523	    -75.45775041	      8.22005350	     -4.08734461	     15.09219212	    -10.15366821	     -6.74490221	    -24.84960519	     13.09785791	     11.25925874	     -5.63489632	      1.43128741	      3.29445124
      3.00000000	     -4.07865255	      2.52443723	    -42.07488681	     -0.00263985	      0.87601032	     -0.68076514	     29.57796078	      3.71124647	     -1.98504105	    -74.46254881	      8.23143100	     -2.75354718	     14.11171816	    -10.44383341	     -7.59031533	    -24.29973703	     13.34009364	     11.21784627	     -5.75343751	      1.66819546	      2.75782798
      3.01000000	     -4.19714562	      2.34098478	    -42.86985513	      0.00194257	      0.87706651	     -0.67780967	     30.14974755	      4.02131289	     -3.33915638	    -73.29978907	      8.32001067	     -1.72433407	     13.12640262	    -10.67782452	     -8.47051015	    -23.70693973	     13.57203920	     11.17191276	     -5.83152024	      1.87958204	      2.28311912
      3.02000000	     -4.30944222	      2.24227070	    -43.71119206	      0.00641725	      0.87786595	     -0.67483859	     30.73552194	      4.18454412	     -4.62193613	    -72.02680034	      8.51753858	     -0.82933487	     12.19371946	    -10.83589235	     -9.44916786	    -23.13945782	     13.84083048	     11.13431508	     -5.85348426	      2.03170124	      1.87100434
